<svg id="visual" viewBox="0 0 960 300" width="960" height="300" xmlns="http://www.w3.org/2000/svg" xmlns:xlink="http://www.w3.org/1999/xlink" version="1.1"><path d="M0 34L16 34.5C32 35 64 36 96 33.7C128 31.3 160 25.7 192 26.3C224 27 256 34 288 35.5C320 37 352 33 384 32.5C416 32 448 35 480 36C512 37 544 36 576 34C608 32 640 29 672 30.8C704 32.7 736 39.3 768 39.8C800 40.3 832 34.7 864 33.5C896 32.3 928 35.7 944 37.3L960 39L960 0L944 0C928 0 896 0 864 0C832 0 800 0 768 0C736 0 704 0 672 0C640 0 608 0 576 0C544 0 512 0 480 0C448 0 416 0 384 0C352 0 320 0 288 0C256 0 224 0 192 0C160 0 128 0 96 0C64 0 32 0 16 0L0 0Z" fill="#8cf6e4"></path><path d="M0 6L16 9.5C32 13 64 20 96 19.7C128 19.3 160 11.7 192 12.2C224 12.7 256 21.3 288 26C320 30.7 352 31.3 384 27.5C416 23.7 448 15.3 480 14.7C512 14 544 21 576 23.5C608 26 640 24 672 19.8C704 15.7 736 9.3 768 11C800 12.7 832 22.3 864 24.8C896 27.3 928 22.7 944 20.3L960 18L960 0L944 0C928 0 896 0 864 0C832 0 800 0 768 0C736 0 704 0 672 0C640 0 608 0 576 0C544 0 512 0 480 0C448 0 416 0 384 0C352 0 320 0 288 0C256 0 224 0 192 0C160 0 128 0 96 0C64 0 32 0 16 0L0 0Z" fill="#16e0bd"></path></svg>