<svg xmlns="http://www.w3.org/2000/svg" xmlns:xlink="http://www.w3.org/1999/xlink" id="visual" version="1.1" viewBox="0 259.52 960 41.48"><path d="M0 269L10.7 269.3C21.3 269.7 42.7 270.3 64 269.5C85.3 268.7 106.7 266.3 128 265C149.3 263.7 170.7 263.3 192 264.8C213.3 266.3 234.7 269.7 256 270.2C277.3 270.7 298.7 268.3 320 268.5C341.3 268.7 362.7 271.3 384 272.8C405.3 274.3 426.7 274.7 448 272.3C469.3 270 490.7 265 512 263.2C533.3 261.3 554.7 262.7 576 261.8C597.3 261 618.7 258 640 260.5C661.3 263 682.7 271 704 274.2C725.3 277.3 746.7 275.7 768 275C789.3 274.3 810.7 274.7 832 272C853.3 269.3 874.7 263.7 896 263.8C917.3 264 938.7 270 949.3 273L960 276L960 301L949.3 301C938.7 301 917.3 301 896 301C874.7 301 853.3 301 832 301C810.7 301 789.3 301 768 301C746.7 301 725.3 301 704 301C682.7 301 661.3 301 640 301C618.7 301 597.3 301 576 301C554.7 301 533.3 301 512 301C490.7 301 469.3 301 448 301C426.7 301 405.3 301 384 301C362.7 301 341.3 301 320 301C298.7 301 277.3 301 256 301C234.7 301 213.3 301 192 301C170.7 301 149.3 301 128 301C106.7 301 85.3 301 64 301C42.7 301 21.3 301 10.7 301L0 301Z" fill="#8cf6e4"/><path d="M0 288L10.7 287.5C21.3 287 42.7 286 64 282.8C85.3 279.7 106.7 274.3 128 274C149.3 273.7 170.7 278.3 192 281C213.3 283.7 234.7 284.3 256 283.8C277.3 283.3 298.7 281.7 320 279C341.3 276.3 362.7 272.7 384 271.2C405.3 269.7 426.7 270.3 448 272.7C469.3 275 490.7 279 512 279.5C533.3 280 554.7 277 576 275.2C597.3 273.3 618.7 272.7 640 273.5C661.3 274.3 682.7 276.7 704 277.7C725.3 278.7 746.7 278.3 768 277.2C789.3 276 810.7 274 832 272.5C853.3 271 874.7 270 896 270C917.3 270 938.7 271 949.3 271.5L960 272L960 301L949.3 301C938.7 301 917.3 301 896 301C874.7 301 853.3 301 832 301C810.7 301 789.3 301 768 301C746.7 301 725.3 301 704 301C682.7 301 661.3 301 640 301C618.7 301 597.3 301 576 301C554.7 301 533.3 301 512 301C490.7 301 469.3 301 448 301C426.7 301 405.3 301 384 301C362.7 301 341.3 301 320 301C298.7 301 277.3 301 256 301C234.7 301 213.3 301 192 301C170.7 301 149.3 301 128 301C106.7 301 85.3 301 64 301C42.7 301 21.3 301 10.7 301L0 301Z" fill="#16e0bd"/></svg>